<?xml version="1.0" standalone="no"?><svg xmlns="http://www.w3.org/2000/svg" viewBox="0 0 1440 320"><path fill="#ff7086" fill-opacity="1" d="M0,160L26.7,144C53.3,128,107,96,160,101.3C213.3,107,267,149,320,186.7C373.3,224,427,256,480,272C533.3,288,587,288,640,266.7C693.3,245,747,203,800,202.7C853.3,203,907,245,960,250.7C1013.3,256,1067,224,1120,181.3C1173.3,139,1227,85,1280,58.7C1333.3,32,1387,32,1413,32L1440,32L1440,320L1413.3,320C1386.7,320,1333,320,1280,320C1226.7,320,1173,320,1120,320C1066.7,320,1013,320,960,320C906.7,320,853,320,800,320C746.7,320,693,320,640,320C586.7,320,533,320,480,320C426.7,320,373,320,320,320C266.7,320,213,320,160,320C106.7,320,53,320,27,320L0,320Z"></path></svg>